Saw Hexalogy Unrated Director's Cut
 
http://www.imdb.com/title/tt0387564/
 
http://www.imdb.com/title/tt0432348/
 
http://www.imdb.com/title/tt0489270/
 
http://www.imdb.com/title/tt0890870/
 
http://www.imdb.com/title/tt1132626/
 
http://www.imdb.com/title/tt1233227/



Subs :

N/A

Source  :

Saw.2004.720p.BluRay.x264-SEPTiC

Saw.II.2005.DVD5.720p.BluRay.x264-CDDHD

Saw.III.2006.DVD5.720p.BluRay.x264-REVEiLLE

Saw.IV.720p.Bluray.x264-SEPTiC

Saw.V.720p.Bluray.x264-SEPTiC

Saw.VI.2009.720p.BluRay.x264-METiS

Info :

ID                               : 1
Format                           : AVC
Format/Info                      : Advanced Video Codec
Format profile                   : Baseline@L3.0
Format settings, CABAC           : No
Format settings, ReFrames        : 3 frames
Codec ID                         : avc1
Codec ID/Info                    : Advanced Video Coding
Duration                         : 1h 42mn
Bit rate mode                    : Variable
Bit rate                         : 395 Kbps
Width                            : 480 pixels
Height                           : 272 pixels
Display aspect ratio             : 16:9
Frame rate mode                  : Variable
Frame rate                       : 23.976 fps
Minimum frame rate               : 23.810 fps
Maximum frame rate               : 24.390 fps
Color space                      : YUV
Chroma subsampling               : 4:2:0
Bit depth                        : 8 bits
Scan type                        : Progressive
Bits/(Pixel*Frame)               : 0.126
Stream size                      : 290 MiB (75%)
Writing library                  : x264 core 79

ID                               : 2
Format                           : AAC
Format/Info                      : Advanced Audio Codec
Format version                   : Version 4
Format profile                   : LC
Format settings, SBR             : No
Codec ID                         : 40
Duration                         : 1h 42mn
Bit rate mode                    : Variable
Bit rate                         : 128 Kbps
Maximum bit rate                 : 188 Kbps
Channel(s)                       : 2 channels
Channel positions                : Front: L R
Sampling rate                    : 48.0 KHz
Stream size                      : 94.0 MiB (24%)

Screens:
 
http://img33.imageshack.us/img33/2074/sawiiiooom4vthumbs20100.jpg
 
http://img823.imageshack.us/img823/7831/sawiiooom4vthumbs201008.jpg
 
http://img72.imageshack.us/img72/6263/sawiooom4vthumbs2010080.jpg
 
http://img841.imageshack.us/img841/4981/sawivooom4vthumbs201008.jpg
 
http://img594.imageshack.us/img594/4964/sawviooom4vthumbs201008.jpg
 
http://img33.imageshack.us/img33/9288/sawvooom4vthumbs2010080.jpg


ALL REQUESTS WILL BE IGNORED FOR NOW.. HAVE WAY TOO MANY MOVIES TO DO! LOL

PLEASE LET THE TORRENT SEED AND SPREAD THE WORD ABOUT IT! 


Let me know what I can do to be your trusted source of Handheld videos.
 
http://thepiratebay.org/user/on.off.on/ -OOO